<!DOCTYPE svg PUBLIC "-//W3C//DTD SVG 20010904//EN" "http://www.w3.org/TR/2001/REC-SVG-20010904/DTD/svg10.dtd">
<svg version="1.0" xmlns="http://www.w3.org/2000/svg" width="1044px" height="1044px" viewBox="0 0 10440 10440" preserveAspectRatio="xMidYMid meet">
<g id="layer101" fill="#f6d3b3" stroke="none">
 <path d="M3764 10169 c-17 -28 77 -29 2521 -29 l2499 0 22 -21 c12 -11 25 -16 28 -11 3 5 -3 17 -14 27 -11 10 -20 14 -20 10 0 -4 -8 -1 -18 8 -17 16 -211 17 -2516 19 -1374 2 -2500 0 -2502 -3z"/>
 <path d="M1580 10155 c-7 -8 -16 -13 -20 -10 -4 2 -15 -4 -24 -14 -10 -11 -13 -22 -8 -25 5 -3 17 3 27 14 17 19 37 20 917 20 495 0 904 3 909 6 5 3 7 10 4 15 -4 5 -359 9 -899 9 -779 0 -895 -2 -906 -15z"/>
 <path d="M3525 10160 c-3 -5 0 -13 9 -16 21 -8 71 -1 71 11 0 14 -72 19 -80 5z"/>
 <path d="M8836 10073 c-3 -4 -6 -184 -6 -400 1 -216 -3 -399 -7 -407 -4 -7 -20 -21 -35 -31 -15 -9 -25 -21 -22 -27 3 -5 17 -2 32 8 33 20 53 44 47 55 -3 4 -1 10 5 14 12 8 14 781 1 789 -4 3 -11 2 -15 -1z"/>
 <path d="M1505 10059 c-10 -26 -1 -764 10 -764 14 0 19 755 5 769 -6 6 -11 4 -15 -5z"/>
 <path d="M1526 9252 c-7 -11 22 -39 46 -44 9 -1 17 1 18 6 3 13 -57 48 -64 38z"/>
 <path d="M2635 9177 c-8 -19 12 -50 26 -41 13 7 11 17 -5 40 -14 18 -15 18 -21 1z"/>
 <path d="M7700 9170 c-14 -26 -4 -45 16 -29 16 13 18 35 5 44 -6 3 -15 -4 -21 -15z"/>
 <path d="M2655 9090 c-4 -6 -3 -16 3 -22 6 -6 12 -6 17 2 4 6 3 16 -3 22 -6 6 -12 6 -17 -2z"/>
 <path d="M7685 9090 c-4 -6 -3 -16 3 -22 6 -6 12 -6 17 2 4 6 3 16 -3 22 -6 6 -12 6 -17 -2z"/>
 <path d="M2664 9036 c-7 -18 13 -49 26 -41 10 6 1 43 -11 51 -5 3 -12 -2 -15 -10z"/>
 <path d="M7671 9028 c-5 -13 -7 -27 -4 -31 6 -11 33 12 33 29 0 24 -20 26 -29 2z"/>
 <path d="M2694 8896 c-7 -18 13 -49 26 -41 10 6 1 43 -11 51 -5 3 -12 -2 -15 -10z"/>
 <path d="M7641 8888 c-5 -13 -7 -27 -4 -31 6 -11 33 12 33 29 0 24 -20 26 -29 2z"/>
 <path d="M7628 8805 c-3 -24 -6 -32 -17 -59 -15 -36 1 -59 19 -26 6 12 9 27 7 35 -3 7 0 18 6 24 8 8 8 14 -1 23 -7 7 -13 8 -14 3z"/>
 <path d="M2724 8755 c-8 -20 8 -53 22 -45 11 6 7 41 -6 54 -6 6 -12 3 -16 -9z"/>
 <path d="M2745 8660 c-4 -6 -3 -16 3 -22 6 -6 12 -6 17 2 4 6 3 16 -3 22 -6 6 -12 6 -17 -2z"/>
 <path d="M7595 8660 c-4 -6 -3 -16 3 -22 6 -6 12 -6 17 2 4 6 3 16 -3 22 -6 6 -12 6 -17 -2z"/>
 <path d="M2754 8606 c-7 -18 13 -49 26 -41 10 6 1 43 -11 51 -5 3 -12 -2 -15 -10z"/>
 <path d="M7581 8598 c-5 -13 -7 -27 -4 -31 6 -11 33 12 33 29 0 24 -20 26 -29 2z"/>
 <path d="M2774 8516 c-3 -8 -2 -21 2 -28 5 -7 7 -20 6 -29 -3 -18 23 -45 31 -32 3 4 0 19 -6 33 -5 14 -9 32 -8 42 3 22 -18 33 -25 14z"/>
 <path d="M7565 8510 c-4 -6 -5 -14 -2 -16 3 -3 -1 -17 -8 -31 -8 -15 -12 -30 -9 -35 9 -13 35 13 32 31 -1 9 1 22 6 29 5 8 4 18 -2 24 -6 6 -12 6 -17 -2z"/>
 <path d="M2805 8370 c-3 -5 -3 -16 2 -22 4 -7 6 -22 5 -34 -3 -23 22 -51 32 -35 3 5 1 22 -6 38 -6 15 -10 33 -9 40 2 16 -16 26 -24 13z"/>
 <path d="M7538 8375 c-3 -24 -6 -32 -17 -58 -6 -16 -8 -33 -5 -38 10 -16 35 12 32 35 -1 12 1 27 6 34 5 8 4 18 -3 25 -6 6 -12 7 -13 2z"/>
 <path d="M2835 8230 c-3 -5 -3 -16 2 -22 4 -7 6 -25 4 -40 -3 -28 15 -46 30 -31 6 6 5 20 -2 39 -7 16 -11 34 -10 41 2 16 -16 26 -24 13z"/>
 <path d="M7508 8235 c-3 -22 -5 -31 -12 -50 -14 -37 -15 -44 -7 -50 13 -7 33 21 29 42 -1 10 1 24 6 31 5 8 4 18 -3 25 -6 6 -12 7 -13 2z"/>
 <path d="M7460 8025 c-15 -39 4 -58 21 -21 9 20 10 29 1 38 -8 8 -14 4 -22 -17z"/>
 <path d="M2875 8031 c-4 -8 -1 -19 8 -28 19 -20 30 -1 13 22 -10 14 -15 15 -21 6z"/>
 <path d="M7430 7885 c-6 -15 -7 -31 -4 -36 8 -14 34 10 34 32 0 30 -19 32 -30 4z"/>
 <path d="M2905 7887 c-8 -19 12 -50 26 -41 13 7 11 17 -5 40 -14 18 -15 18 -21 1z"/>
 <path d="M2925 7799 c-4 -6 -3 -15 3 -21 6 -6 8 -16 6 -23 -3 -7 -1 -16 5 -19 14 -9 25 14 13 26 -6 6 -8 16 -6 23 7 17 -12 29 -21 14z"/>
 <path d="M7415 7800 c-4 -6 -4 -14 -1 -17 3 -3 1 -12 -5 -19 -6 -7 -8 -18 -4 -24 9 -14 28 -1 21 15 -2 7 1 18 7 24 8 8 8 14 0 22 -8 8 -13 8 -18 -1z"/>
 <path d="M3150 6745 c-10 -12 -10 -18 0 -30 15 -18 23 -13 25 16 2 26 -10 33 -25 14z"/>
 <path d="M7191 6726 c-7 -8 -8 -17 -3 -20 6 -3 15 1 21 8 7 8 8 17 3 20 -6 3 -15 -1 -21 -8z"/>
 <path d="M3165 6660 c-4 -6 -3 -16 3 -22 6 -6 12 -6 17 2 4 6 3 16 -3 22 -6 6 -12 6 -17 -2z"/>
 <path d="M3174 6606 c-7 -18 13 -49 26 -41 10 6 1 43 -11 51 -5 3 -12 -2 -15 -10z"/>
 <path d="M7161 6598 c-5 -13 -7 -27 -4 -31 6 -11 33 12 33 29 0 24 -20 26 -29 2z"/>
 <path d="M3195 6510 c-3 -5 -3 -16 2 -22 4 -7 6 -22 5 -34 -3 -23 22 -51 32 -35 3 5 1 22 -6 38 -6 15 -10 33 -9 40 2 16 -16 26 -24 13z"/>
 <path d="M7148 6515 c-3 -24 -6 -32 -17 -58 -6 -16 -8 -33 -5 -38 10 -16 35 12 32 35 -1 12 1 27 6 34 5 8 4 18 -3 25 -6 6 -12 7 -13 2z"/>
 <path d="M3225 6370 c-3 -5 -3 -16 2 -22 4 -7 6 -22 5 -34 -3 -23 22 -51 32 -35 3 5 1 22 -6 38 -6 15 -10 33 -9 40 2 16 -16 26 -24 13z"/>
 <path d="M7115 6370 c-4 -6 -3 -16 3 -22 6 -6 12 -6 17 2 4 6 3 16 -3 22 -6 6 -12 6 -17 -2z"/>
 <path d="M7101 6308 c-5 -13 -7 -27 -4 -31 6 -11 33 12 33 29 0 24 -20 26 -29 2z"/>
 <path d="M3255 6230 c-4 -6 -3 -16 3 -22 6 -6 12 -6 17 2 4 6 3 16 -3 22 -6 6 -12 6 -17 -2z"/>
 <path d="M3264 6177 c-8 -23 3 -50 19 -44 13 4 11 36 -4 51 -5 6 -11 3 -15 -7z"/>
 <path d="M7071 6168 c-5 -13 -7 -27 -4 -31 6 -11 33 12 33 29 0 24 -20 26 -29 2z"/>
 <path d="M3285 6090 c-4 -6 -3 -16 3 -22 6 -6 12 -6 17 2 4 6 3 16 -3 22 -6 6 -12 6 -17 -2z"/>
 <path d="M7055 6080 c-4 -6 -3 -16 3 -22 6 -6 12 -6 17 2 4 6 3 16 -3 22 -6 6 -12 6 -17 -2z"/>
 <path d="M3294 6036 c-7 -18 13 -49 26 -41 10 6 1 43 -11 51 -5 3 -12 -2 -15 -10z"/>
 <path d="M7040 6020 c-14 -26 -4 -45 16 -29 16 13 18 35 5 44 -6 3 -15 -4 -21 -15z"/>
 <path d="M3315 5940 c-4 -6 -3 -16 3 -22 6 -6 12 -6 17 2 4 6 3 16 -3 22 -6 6 -12 6 -17 -2z"/>
 <path d="M7025 5940 c-4 -6 -3 -16 3 -22 6 -6 12 -6 17 2 4 6 3 16 -3 22 -6 6 -12 6 -17 -2z"/>
 <path d="M3326 5892 c-9 -15 12 -54 25 -47 12 8 11 18 -4 40 -10 12 -16 14 -21 7z"/>
 <path d="M7010 5880 c-14 -26 -4 -45 16 -29 16 13 18 35 5 44 -6 3 -15 -4 -21 -15z"/>
 <path d="M3345 5799 c-4 -6 -3 -15 3 -21 6 -6 8 -16 5 -23 -2 -8 1 -23 7 -35 18 -33 34 -10 19 26 -7 16 -11 34 -10 41 2 16 -16 26 -24 12z"/>
 <path d="M6981 5738 c-5 -13 -7 -27 -4 -31 6 -11 33 12 33 29 0 24 -20 26 -29 2z"/>
 <path d="M3384 5606 c-7 -18 13 -49 26 -41 10 6 1 43 -11 51 -5 3 -12 -2 -15 -10z"/>
 <path d="M6950 5595 c-15 -39 4 -58 21 -21 9 20 10 29 1 38 -8 8 -14 4 -22 -17z"/>
 <path d="M6935 5510 c-4 -6 -3 -16 3 -22 6 -6 12 -6 17 2 4 6 3 16 -3 22 -6 6 -12 6 -17 -2z"/>
 <path d="M3414 5465 c-8 -20 8 -53 22 -45 11 6 7 41 -6 54 -6 6 -12 3 -16 -9z"/>
 <path d="M6921 5448 c-5 -13 -7 -27 -4 -31 6 -11 33 12 33 29 0 24 -20 26 -29 2z"/>
 <path d="M3435 5370 c-3 -5 -3 -16 2 -22 4 -7 6 -22 5 -34 -3 -23 22 -51 32 -35 3 5 1 22 -6 38 -6 15 -10 33 -9 40 2 16 -16 26 -24 13z"/>
 <path d="M6905 5370 c-4 -6 -3 -16 3 -22 6 -6 12 -6 17 2 4 6 3 16 -3 22 -6 6 -12 6 -17 -2z"/>
 <path d="M6891 5308 c-5 -13 -7 -27 -4 -31 6 -11 33 12 33 29 0 24 -20 26 -29 2z"/>
 <path d="M3675 4230 c-4 -6 -3 -16 3 -22 6 -6 12 -6 17 2 4 6 3 16 -3 22 -6 6 -12 6 -17 -2z"/>
 <path d="M6665 4220 c-4 -6 -3 -16 3 -22 6 -6 12 -6 17 2 4 6 3 16 -3 22 -6 6 -12 6 -17 -2z"/>
 <path d="M3684 4176 c-7 -18 13 -49 26 -41 10 6 1 43 -11 51 -5 3 -12 -2 -15 -10z"/>
 <path d="M6650 4160 c-8 -15 -9 -25 -2 -32 7 -7 14 -3 22 12 8 15 9 25 2 32 -7 7 -14 3 -22 -12z"/>
 <path d="M6635 4080 c-4 -6 -3 -16 3 -22 6 -6 12 -6 17 2 4 6 3 16 -3 22 -6 6 -12 6 -17 -2z"/>
 <path d="M3714 4036 c-3 -8 0 -24 6 -36 17 -31 34 -11 21 23 -12 30 -19 34 -27 13z"/>
 <path d="M6620 4020 c-14 -26 -4 -45 16 -29 16 13 18 35 5 44 -6 3 -15 -4 -21 -15z"/>
 <path d="M3744 3895 c-8 -20 8 -53 22 -45 11 6 7 41 -6 54 -6 6 -12 3 -16 -9z"/>
 <path d="M6591 3878 c-5 -13 -7 -27 -4 -31 6 -11 33 12 33 29 0 24 -20 26 -29 2z"/>
 <path d="M3765 3800 c-4 -6 -3 -16 3 -22 6 -6 12 -6 17 2 4 6 3 16 -3 22 -6 6 -12 6 -17 -2z"/>
 <path d="M3774 3746 c-3 -8 0 -24 6 -36 17 -31 34 -11 21 23 -12 30 -19 34 -27 13z"/>
 <path d="M6560 3735 c-15 -39 4 -58 21 -21 9 20 10 29 1 38 -8 8 -14 4 -22 -17z"/>
 <path d="M6545 3650 c-4 -6 -3 -16 3 -22 6 -6 12 -6 17 2 4 6 3 16 -3 22 -6 6 -12 6 -17 -2z"/>
 <path d="M3806 3602 c-9 -15 12 -54 25 -47 12 8 11 18 -4 40 -10 12 -16 14 -21 7z"/>
 <path d="M6530 3590 c-14 -26 -4 -45 16 -29 16 13 18 35 5 44 -6 3 -15 -4 -21 -15z"/>
 <path d="M3825 3510 c-3 -5 -3 -16 2 -22 4 -7 6 -21 5 -31 -4 -20 16 -49 28 -42 9 6 1 53 -11 60 -4 3 -6 12 -3 19 6 17 -12 31 -21 16z"/>
 <path d="M6515 3510 c-4 -6 -3 -16 3 -22 6 -6 12 -6 17 2 4 6 3 16 -3 22 -6 6 -12 6 -17 -2z"/>
 <path d="M6501 3448 c-5 -13 -7 -27 -4 -31 6 -11 33 12 33 29 0 24 -20 26 -29 2z"/>
 <path d="M3855 3370 c-4 -6 -3 -16 3 -22 6 -6 12 -6 17 2 4 6 3 16 -3 22 -6 6 -12 6 -17 -2z"/>
 <path d="M3864 3316 c-7 -18 13 -49 26 -41 10 6 1 43 -11 51 -5 3 -12 -2 -15 -10z"/>
 <path d="M6470 3305 c-15 -39 4 -58 21 -21 9 20 10 29 1 38 -8 8 -14 4 -22 -17z"/>
 <path d="M3894 3175 c-8 -20 8 -53 22 -45 11 6 7 41 -6 54 -6 6 -12 3 -16 -9z"/>
 <path d="M6440 3165 c-6 -15 -7 -31 -4 -36 8 -14 34 10 34 32 0 30 -19 32 -30 4z"/>
 <path d="M3915 3080 c-4 -6 -3 -16 3 -22 6 -6 12 -6 17 2 4 6 3 16 -3 22 -6 6 -12 6 -17 -2z"/>
 <path d="M6425 3080 c-4 -6 -3 -16 3 -22 6 -6 12 -6 17 2 4 6 3 16 -3 22 -6 6 -12 6 -17 -2z"/>
 <path d="M3925 3027 c-8 -19 12 -50 26 -41 13 7 11 17 -5 40 -14 18 -15 18 -21 1z"/>
 <path d="M6411 3018 c-5 -13 -7 -27 -4 -31 6 -11 33 12 33 29 0 24 -20 26 -29 2z"/>
 <path d="M3954 2886 c-7 -18 13 -49 26 -41 10 6 1 43 -11 51 -5 3 -12 -2 -15 -10z"/>
 <path d="M6381 2878 c-5 -13 -7 -27 -4 -31 6 -11 33 12 33 29 0 24 -20 26 -29 2z"/>
 <path d="M3977 2793 c-4 -6 0 -18 7 -28 8 -11 16 -14 19 -8 4 6 0 18 -7 28 -8 11 -16 14 -19 8z"/>
 <path d="M4199 1778 c-7 -16 -5 -56 3 -65 14 -18 30 -5 19 15 -4 9 -6 22 -4 29 3 9 -14 30 -18 21z"/>
 <path d="M6145 1769 c-4 -5 -5 -13 -2 -16 3 -3 2 -16 -3 -29 -10 -26 2 -41 18 -21 12 14 13 65 1 72 -4 3 -11 0 -14 -6z"/>
 <path d="M4215 1650 c-3 -5 -3 -16 2 -22 4 -7 6 -22 5 -34 -3 -23 22 -51 32 -35 3 5 1 22 -6 38 -6 15 -10 33 -9 40 2 16 -16 26 -24 13z"/>
 <path d="M6125 1650 c-4 -6 -3 -16 3 -22 6 -6 12 -6 17 2 4 6 3 16 -3 22 -6 6 -12 6 -17 -2z"/>
 <path d="M6111 1588 c-5 -13 -7 -27 -4 -31 6 -11 33 12 33 29 0 24 -20 26 -29 2z"/>
 <path d="M4245 1510 c-4 -6 -3 -16 3 -22 6 -6 12 -6 17 2 4 6 3 16 -3 22 -6 6 -12 6 -17 -2z"/>
 <path d="M4254 1456 c-7 -18 13 -49 26 -41 10 6 1 43 -11 51 -5 3 -12 -2 -15 -10z"/>
 <path d="M6080 1445 c-15 -39 4 -58 21 -21 9 20 10 29 1 38 -8 8 -14 4 -22 -17z"/>
 <path d="M4275 1370 c-4 -6 -3 -16 3 -22 6 -6 12 -6 17 2 4 6 3 16 -3 22 -6 6 -12 6 -17 -2z"/>
 <path d="M6068 1365 c-3 -24 -6 -32 -17 -58 -6 -16 -8 -33 -5 -38 10 -16 35 12 32 35 -1 12 1 27 6 34 5 8 4 18 -3 25 -6 6 -12 7 -13 2z"/>
 <path d="M4284 1316 c-3 -8 0 -24 6 -36 17 -31 34 -11 21 23 -12 30 -19 34 -27 13z"/>
 <path d="M6035 1220 c-4 -6 -3 -16 3 -22 6 -6 12 -6 17 2 4 6 3 16 -3 22 -6 6 -12 6 -17 -2z"/>
 <path d="M4314 1176 c-3 -8 0 -24 6 -36 17 -31 34 -11 21 23 -12 30 -19 34 -27 13z"/>
 <path d="M6021 1158 c-5 -13 -7 -27 -4 -31 6 -11 33 12 33 29 0 24 -20 26 -29 2z"/>
 <path d="M4335 1080 c-4 -6 -3 -16 3 -22 6 -6 12 -6 17 2 4 6 3 16 -3 22 -6 6 -12 6 -17 -2z"/>
 <path d="M6005 1070 c-4 -6 -5 -14 -2 -16 3 -3 -1 -17 -8 -31 -8 -15 -12 -30 -9 -35 9 -13 35 13 32 31 -1 9 1 22 6 29 5 8 4 18 -2 24 -6 6 -12 6 -17 -2z"/>
 <path d="M4345 1027 c-8 -19 12 -50 26 -41 13 7 11 17 -5 40 -14 18 -15 18 -21 1z"/>
 <path d="M4374 886 c-7 -18 13 -49 26 -41 10 6 1 43 -11 51 -5 3 -12 -2 -15 -10z"/>
 <path d="M5960 870 c-8 -15 -9 -25 -2 -32 7 -7 14 -3 22 12 8 15 9 25 2 32 -7 7 -14 3 -22 -12z"/>
 <path d="M4395 790 c-3 -5 -3 -16 2 -22 4 -7 6 -22 5 -34 -3 -23 22 -51 32 -35 3 5 1 22 -6 38 -6 15 -10 33 -9 40 2 16 -16 26 -24 13z"/>
 <path d="M5945 790 c-4 -6 -3 -16 3 -22 6 -6 12 -6 17 2 4 6 3 16 -3 22 -6 6 -12 6 -17 -2z"/>
 <path d="M5930 730 c-14 -26 -4 -45 16 -29 16 13 18 35 5 44 -6 3 -15 -4 -21 -15z"/>
 <path d="M4425 650 c-4 -6 -3 -16 3 -22 6 -6 12 -6 17 2 4 6 3 16 -3 22 -6 6 -12 6 -17 -2z"/>
 <path d="M5915 650 c-4 -6 -3 -16 3 -22 6 -6 12 -6 17 2 4 6 3 16 -3 22 -6 6 -12 6 -17 -2z"/>
 <path d="M4434 596 c-7 -18 13 -49 26 -41 10 6 1 43 -11 51 -5 3 -12 -2 -15 -10z"/>
 <path d="M5901 588 c-5 -13 -7 -27 -4 -31 6 -11 33 12 33 29 0 24 -20 26 -29 2z"/>
 <path d="M4455 510 c-4 -6 -3 -16 3 -22 6 -6 12 -6 17 2 4 6 3 16 -3 22 -6 6 -12 6 -17 -2z"/>
 <path d="M5888 505 c-3 -24 -6 -32 -17 -58 -6 -16 -8 -33 -5 -38 10 -16 35 12 32 35 -1 12 1 27 6 34 5 8 4 18 -3 25 -6 6 -12 7 -13 2z"/>
 <path d="M4464 457 c-8 -23 3 -50 19 -44 13 4 11 36 -4 51 -5 6 -11 3 -15 -7z"/>
 <path d="M4485 390 c-6 -10 42 -80 56 -80 4 0 10 4 13 8 6 9 -35 48 -46 44 -4 -1 -5 4 -2 12 6 17 -12 31 -21 16z"/>
 <path d="M5846 371 c-10 -11 -13 -22 -8 -25 5 -3 17 3 26 13 10 11 13 22 8 25 -5 3 -17 -3 -26 -13z"/>
 <path d="M5811 326 c-7 -8 -8 -17 -3 -20 6 -3 15 1 21 8 7 8 8 17 3 20 -6 3 -15 -1 -21 -8z"/>
 <path d="M4576 301 c-7 -11 22 -36 31 -28 3 4 12 2 19 -4 7 -6 18 -8 24 -4 13 8 3 26 -13 23 -7 -1 -22 3 -34 10 -12 7 -24 8 -27 3z"/>
 <path d="M5754 296 c-10 -8 -24 -12 -30 -9 -7 2 -15 0 -18 -6 -9 -14 14 -25 26 -13 6 6 16 8 23 6 14 -6 40 22 27 30 -5 3 -17 -1 -28 -8z"/>
 </g>
<g id="layer102" fill="#efa667" stroke="none">
 <path d="M2495 10163 c-490 -2 -894 -5 -900 -7 -5 -2 -14 -4 -18 -4 -16 0 -66 -55 -61 -64 4 -5 18 2 33 16 l28 26 884 1 c885 1 1074 5 1074 24 0 12 81 11 -1040 8z"/>
 <path d="M3594 10158 c-2 -4 1 -10 8 -15 7 -4 1176 -9 2598 -11 l2584 -2 27 -26 c15 -14 29 -21 33 -16 5 8 -47 66 -56 62 -1 -1 -10 1 -18 4 -22 8 -5171 12 -5176 4z"/>
 <path d="M1527 9273 c-13 -12 -7 -22 30 -48 l38 -25 516 0 516 0 12 -27 c8 -18 15 -23 22 -16 8 8 7 20 -3 40 l-13 28 -535 5 c-294 3 -536 7 -537 8 -1 1 -11 11 -21 22 -10 11 -22 17 -25 13z"/>
 <path d="M8813 9267 c-19 -33 -51 -36 -309 -36 -143 1 -324 2 -404 4 -80 1 -149 0 -154 -3 -5 -3 -30 -5 -55 -6 -25 -1 -48 -5 -51 -11 -3 -7 154 -11 459 -13 l464 -3 39 26 c21 14 38 29 38 35 0 16 -19 21 -27 7z"/>
 <path d="M7700 9195 c-15 -39 4 -58 21 -21 9 20 10 29 1 38 -8 8 -14 4 -22 -17z"/>
 <path d="M2657 9113 c-6 -9 9 -89 20 -105 14 -23 23 11 14 52 -10 45 -25 68 -34 53z"/>
 <path d="M7682 9104 c-14 -27 -19 -88 -7 -94 13 -7 37 92 26 103 -5 5 -13 1 -19 -9z"/>
 <path d="M2686 8970 c-8 -20 17 -106 29 -102 6 1 10 7 9 12 -1 6 -2 23 -2 38 -2 37 -28 74 -36 52z"/>
 <path d="M7652 8964 c-14 -27 -19 -88 -7 -93 14 -5 39 89 27 101 -7 7 -13 4 -20 -8z"/>
 <path d="M2717 8823 c-9 -14 16 -95 28 -94 6 1 10 6 9 11 -1 6 -2 20 -2 33 -2 29 -27 64 -35 50z"/>
 <path d="M7622 8814 c-14 -27 -19 -83 -7 -84 14 -2 37 82 26 93 -5 5 -13 2 -19 -9z"/>
 <path d="M2747 8683 c-6 -9 9 -89 20 -105 14 -23 23 11 14 52 -10 45 -25 68 -34 53z"/>
 <path d="M7592 8674 c-14 -27 -19 -88 -7 -94 13 -7 37 92 26 103 -5 5 -13 1 -19 -9z"/>
 <path d="M2777 8543 c-9 -14 16 -108 28 -105 6 1 10 7 9 12 -1 6 -2 23 -2 38 -2 32 -26 70 -35 55z"/>
 <path d="M7562 8534 c-14 -27 -19 -88 -7 -93 14 -5 39 89 27 101 -7 7 -13 4 -20 -8z"/>
 <path d="M2806 8392 c-8 -14 17 -95 29 -90 6 1 9 19 7 38 -4 37 -25 69 -36 52z"/>
 <path d="M7532 8384 c-14 -27 -19 -83 -7 -84 14 -2 37 82 26 93 -5 5 -13 2 -19 -9z"/>
 <path d="M2837 8253 c-4 -6 0 -32 8 -58 8 -27 13 -51 12 -56 -1 -4 2 -9 8 -10 8 -4 10 10 6 72 -1 31 -25 66 -34 52z"/>
 <path d="M7500 8240 c-6 -11 -10 -28 -8 -38 1 -9 -1 -23 -5 -29 -5 -7 -5 -18 -2 -23 9 -14 28 -1 21 15 -2 7 -1 16 3 21 14 15 22 62 12 69 -6 3 -15 -4 -21 -15z"/>
 <path d="M7472 8104 c-14 -27 -19 -88 -7 -93 14 -5 39 89 27 101 -7 7 -13 4 -20 -8z"/>
 <path d="M2864 8097 c-6 -17 18 -88 31 -90 14 -3 18 44 6 76 -11 29 -28 35 -37 14z"/>
 <path d="M2897 7964 c-7 -7 2 -61 15 -87 14 -28 27 -10 21 31 -6 38 -24 67 -36 56z"/>
 <path d="M7443 7958 c-15 -18 -20 -82 -8 -86 13 -4 38 79 27 90 -5 5 -14 3 -19 -4z"/>
 <path d="M2926 7821 c-3 -5 0 -26 6 -47 10 -30 18 -38 38 -39 14 0 26 5 27 10 2 6 -5 10 -14 10 -10 0 -20 12 -25 32 -9 34 -23 49 -32 34z"/>
 <path d="M7412 7814 c-14 -27 -19 -73 -7 -76 14 -4 38 73 26 85 -6 6 -13 2 -19 -9z"/>
 <path d="M3105 7750 c-3 -6 0 -12 7 -15 26 -10 813 0 813 10 0 14 -811 19 -820 5z"/>
 <path d="M4075 7750 c-3 -6 0 -12 7 -15 26 -10 1933 0 1933 10 0 14 -1931 19 -1940 5z"/>
 <path d="M6055 7750 c-3 -5 -2 -11 2 -13 15 -8 78 -2 83 8 6 12 -78 17 -85 5z"/>
 <path d="M6165 7751 c-7 -13 17 -24 40 -19 9 1 16 8 16 13 0 14 -48 19 -56 6z"/>
 <path d="M6275 7750 c-8 -13 20 -24 41 -16 20 8 9 26 -16 26 -10 0 -22 -5 -25 -10z"/>
 <path d="M6485 7750 c-3 -6 0 -12 7 -15 26 -10 763 0 763 10 0 14 -761 19 -770 5z"/>
 <path d="M7295 7751 c-7 -12 12 -24 25 -16 11 7 4 25 -10 25 -5 0 -11 -4 -15 -9z"/>
 <path d="M3160 6745 c-9 -11 -10 -19 -3 -26 8 -8 13 -7 17 0 10 16 4002 16 4012 0 10 -16 28 6 21 25 -6 14 -201 16 -2020 16 -1803 0 -2016 -2 -2027 -15z"/>
 <path d="M3167 6683 c-9 -14 16 -108 28 -105 6 1 10 7 9 12 -1 6 -2 23 -2 38 -2 32 -26 70 -35 55z"/>
 <path d="M7172 6674 c-14 -27 -19 -88 -7 -93 14 -5 39 89 27 101 -7 7 -13 4 -20 -8z"/>
 <path d="M3196 6541 c-8 -12 13 -99 25 -106 15 -10 18 11 8 56 -11 48 -23 67 -33 50z"/>
 <path d="M7142 6524 c-14 -27 -19 -83 -7 -84 14 -2 37 82 26 93 -5 5 -13 2 -19 -9z"/>
 <path d="M3227 6393 c-9 -14 16 -95 28 -94 6 1 10 6 9 11 -1 6 -2 20 -2 33 -2 29 -27 64 -35 50z"/>
 <path d="M7112 6383 c-15 -27 -19 -91 -7 -95 13 -4 37 94 26 105 -5 5 -13 1 -19 -10z"/>
 <path d="M3257 6253 c-6 -9 9 -89 20 -105 14 -23 23 11 14 52 -10 45 -25 68 -34 53z"/>
 <path d="M7082 6244 c-14 -27 -19 -88 -7 -93 14 -5 39 89 27 101 -7 7 -13 4 -20 -8z"/>
 <path d="M3287 6113 c-9 -14 16 -108 28 -105 6 1 10 7 9 12 -1 6 -2 23 -2 38 -2 32 -26 70 -35 55z"/>
 <path d="M7053 6097 c-14 -17 -23 -86 -13 -92 11 -7 25 20 33 62 7 34 -4 51 -20 30z"/>
 <path d="M3317 5964 c-7 -8 2 -61 15 -88 16 -30 28 -5 18 38 -9 41 -22 61 -33 50z"/>
 <path d="M7022 5953 c-15 -29 -22 -82 -12 -88 11 -7 25 19 33 62 7 36 -7 53 -21 26z"/>
 <path d="M3347 5823 c-9 -14 16 -95 28 -94 6 1 10 6 9 11 -1 6 -2 20 -2 33 -2 29 -27 64 -35 50z"/>
 <path d="M6992 5814 c-14 -27 -19 -88 -7 -93 14 -5 39 89 27 101 -7 7 -13 4 -20 -8z"/>
 <path d="M3376 5672 c-8 -13 17 -94 29 -92 14 2 7 72 -9 88 -8 8 -16 10 -20 4z"/>
 <path d="M6962 5664 c-14 -27 -19 -83 -7 -84 14 -2 37 82 26 93 -5 5 -13 2 -19 -9z"/>
 <path d="M3407 5533 c-9 -14 16 -95 28 -94 6 1 10 6 9 11 -1 6 -2 20 -2 33 -2 29 -27 64 -35 50z"/>
 <path d="M6932 5523 c-15 -27 -19 -91 -7 -95 13 -4 37 94 26 105 -5 5 -13 1 -19 -10z"/>
 <path d="M3437 5393 c-9 -14 16 -95 28 -94 6 1 10 6 9 11 -1 6 -2 20 -2 33 -2 29 -27 64 -35 50z"/>
 <path d="M6902 5383 c-15 -27 -19 -91 -7 -95 13 -4 37 94 26 105 -5 5 -13 1 -19 -10z"/>
 <path d="M3676 4261 c-8 -12 13 -109 24 -116 15 -9 18 9 10 53 l-7 42 1477 0 1477 0 -8 -42 c-4 -24 -4 -47 1 -52 12 -12 29 26 32 75 l3 44 -1502 3 c-906 1 -1504 -2 -1507 -7z"/>
 <path d="M3706 4111 c-8 -12 13 -99 25 -106 15 -10 18 11 8 56 -11 48 -23 67 -33 50z"/>
 <path d="M6632 4093 c-15 -29 -22 -82 -12 -88 11 -7 25 19 33 62 7 36 -7 53 -21 26z"/>
 <path d="M3737 3963 c-9 -14 16 -95 28 -94 6 1 10 6 9 11 -1 6 -2 20 -2 33 -2 29 -27 64 -35 50z"/>
 <path d="M6602 3954 c-14 -27 -19 -88 -7 -93 14 -5 39 89 27 101 -7 7 -13 4 -20 -8z"/>
 <path d="M3767 3823 c-9 -14 16 -108 28 -105 6 1 10 7 9 12 -1 6 -2 23 -2 38 -2 32 -26 70 -35 55z"/>
 <path d="M6573 3808 c-15 -18 -20 -82 -8 -86 13 -4 38 79 27 90 -5 5 -14 3 -19 -4z"/>
 <path d="M3797 3674 c-7 -7 2 -61 15 -87 14 -28 27 -10 21 31 -6 38 -24 67 -36 56z"/>
 <path d="M6542 3663 c-15 -29 -22 -82 -12 -88 11 -7 25 19 33 62 7 36 -7 53 -21 26z"/>
 <path d="M3827 3534 c-8 -8 1 -54 14 -68 4 -5 5 -14 3 -21 -7 -16 12 -29 21 -15 3 5 3 16 -2 23 -4 6 -6 21 -5 32 3 23 -20 60 -31 49z"/>
 <path d="M6512 3524 c-14 -27 -19 -88 -7 -94 13 -7 37 92 26 103 -5 5 -13 1 -19 -9z"/>
 <path d="M3857 3393 c-9 -14 16 -108 28 -105 6 1 10 7 9 12 -1 6 -2 23 -2 38 -2 32 -26 70 -35 55z"/>
 <path d="M6481 3378 c-14 -37 -17 -83 -6 -87 15 -6 39 89 26 102 -7 7 -13 3 -20 -15z"/>
 <path d="M3887 3243 c-9 -14 16 -95 28 -94 6 1 10 6 9 11 -1 6 -2 20 -2 33 -2 29 -27 64 -35 50z"/>
 <path d="M6453 3238 c-15 -18 -20 -82 -8 -86 13 -4 38 79 27 90 -5 5 -14 3 -19 -4z"/>
 <path d="M3917 3104 c-7 -8 2 -61 15 -88 16 -30 28 -5 18 38 -9 41 -22 61 -33 50z"/>
 <path d="M6422 3093 c-15 -27 -19 -91 -7 -95 13 -4 37 94 26 105 -5 5 -13 1 -19 -10z"/>
 <path d="M3946 2960 c-8 -20 17 -106 29 -102 6 1 10 7 9 12 -1 6 -2 23 -2 38 -2 37 -28 74 -36 52z"/>
 <path d="M6392 2954 c-14 -27 -19 -88 -7 -93 14 -5 39 89 27 101 -7 7 -13 4 -20 -8z"/>
 <path d="M3974 2816 c-3 -8 0 -24 6 -36 17 -31 34 -11 21 23 -12 30 -19 34 -27 13z"/>
 <path d="M6359 2796 c-9 -20 -10 -29 -1 -38 8 -8 14 -4 22 17 15 39 -4 58 -21 21z"/>
 <path d="M5127 2784 c-4 -4 -20 -7 -37 -8 -16 -1 -31 -5 -32 -11 -3 -11 146 -20 171 -10 14 6 13 8 -3 21 -20 14 -87 19 -99 8z"/>
 <path d="M5395 2770 c-3 -5 0 -13 8 -16 23 -8 82 0 82 11 0 14 -82 19 -90 5z"/>
 <path d="M4201 1761 c-12 -22 11 -63 23 -43 4 7 4 17 1 22 -4 7 316 10 953 10 936 0 960 0 955 -19 -3 -10 0 -22 6 -26 16 -9 31 36 19 58 -8 16 -65 17 -978 17 -935 0 -970 -1 -979 -19z"/>
 <path d="M4217 1673 c-9 -14 16 -95 28 -94 6 1 10 6 9 11 -1 6 -2 20 -2 33 -2 29 -27 64 -35 50z"/>
 <path d="M6122 1663 c-15 -27 -19 -91 -7 -95 13 -4 37 94 26 105 -5 5 -13 1 -19 -10z"/>
 <path d="M4247 1533 c-6 -9 9 -89 20 -105 14 -23 23 11 14 52 -10 45 -25 68 -34 53z"/>
 <path d="M6092 1524 c-14 -27 -19 -88 -7 -93 14 -5 39 89 27 101 -7 7 -13 4 -20 -8z"/>
 <path d="M4277 1393 c-9 -14 16 -108 28 -105 6 1 10 7 9 12 -1 6 -2 23 -2 38 -2 32 -26 70 -35 55z"/>
 <path d="M6062 1374 c-14 -27 -19 -83 -7 -84 14 -2 37 82 26 93 -5 5 -13 2 -19 -9z"/>
 <path d="M4307 1243 c-9 -14 16 -95 28 -94 6 1 10 6 9 11 -1 6 -2 20 -2 33 -2 29 -27 64 -35 50z"/>
 <path d="M6032 1233 c-15 -27 -19 -91 -7 -95 13 -4 37 94 26 105 -5 5 -13 1 -19 -10z"/>
 <path d="M4337 1104 c-7 -8 2 -61 15 -88 16 -30 28 -5 18 38 -9 41 -22 61 -33 50z"/>
 <path d="M6002 1094 c-14 -27 -19 -88 -7 -93 14 -5 39 89 27 101 -7 7 -13 4 -20 -8z"/>
 <path d="M4366 960 c-8 -20 17 -106 29 -102 6 1 10 7 9 12 -1 6 -2 23 -2 38 -2 37 -28 74 -36 52z"/>
 <path d="M5972 943 c-15 -29 -22 -82 -12 -88 11 -7 25 19 33 62 7 36 -7 53 -21 26z"/>
 <path d="M4397 813 c-9 -14 16 -95 28 -94 6 1 10 6 9 11 -1 6 -2 20 -2 33 -2 29 -27 64 -35 50z"/>
 <path d="M5942 803 c-15 -29 -22 -82 -12 -88 11 -7 25 19 33 62 7 36 -7 53 -21 26z"/>
 <path d="M4427 673 c-6 -9 9 -89 20 -105 14 -23 23 11 14 52 -10 45 -25 68 -34 53z"/>
 <path d="M5912 664 c-14 -27 -19 -88 -7 -94 13 -7 37 92 26 103 -5 5 -13 1 -19 -9z"/>
 <path d="M4457 533 c-9 -14 16 -108 28 -105 6 1 10 7 9 12 -1 6 -2 23 -2 38 -2 32 -26 70 -35 55z"/>
 <path d="M5882 514 c-14 -27 -19 -83 -7 -84 14 -2 37 82 26 93 -5 5 -13 2 -19 -9z"/>
 <path d="M4494 385 c-8 -20 65 -100 79 -86 14 14 -2 33 -21 26 -9 -3 -13 -3 -9 1 9 9 -12 36 -23 29 -5 -3 -6 3 -3 14 6 24 -15 38 -23 16z"/>
 <path d="M5843 384 c-9 -25 13 -40 26 -16 10 19 6 32 -11 32 -5 0 -11 -7 -15 -16z"/>
 <path d="M5801 331 c-36 -27 -17 -46 19 -19 16 12 27 25 24 30 -8 12 -16 10 -43 -11z"/>
 <path d="M4586 301 c-4 -5 4 -16 16 -23 34 -19 1122 -19 1156 0 35 20 17 30 -38 20 -61 -11 -1088 -6 -1111 5 -10 5 -20 4 -23 -2z"/>
 </g>
<g id="layer103" fill="#b74b02" stroke="none">
 <path d="M1541 10113 l-31 -38 0 -387 c0 -371 1 -388 20 -421 12 -19 31 -38 43 -41 12 -3 1400 -6 3085 -6 2057 0 3061 -3 3057 -10 -7 -12 35 -31 49 -22 5 3 26 6 45 6 23 1 35 6 34 14 -2 8 14 12 55 12 32 0 62 4 67 8 13 11 151 -11 148 -23 -2 -6 25 -10 65 -10 47 1 66 4 64 13 -1 9 63 12 271 12 292 0 288 -1 320 52 15 24 17 69 17 417 l0 390 -35 36 -36 35 -3604 0 -3604 0 -30 -37z m6665 -890 c-10 -11 -76 -11 -76 -1 0 4 19 8 42 8 23 0 38 -3 34 -7z"/>
 <path d="M2846 8143 c-8 -9 -8 -48 2 -57 4 -4 8 -12 8 -17 1 -5 3 -11 4 -14 1 -3 3 -9 4 -15 0 -5 4 -10 9 -10 4 0 10 0 13 0 4 0 2 6 -4 13 -6 6 -11 15 -11 20 -1 4 -1 10 -2 15 -1 4 0 19 1 34 1 26 -11 43 -24 31z"/>
 </g>
<g id="layer104" fill="#e6ebee" stroke="none">
 <path d="M6942 10433 c24 -3 47 -15 66 -34 33 -33 53 -24 24 10 -13 17 -30 23 -72 25 -30 2 -38 1 -18 -1z"/>
 <path d="M6892 10394 c2 -21 9 -28 32 -30 35 -4 35 -3 40 -45 3 -32 5 -34 42 -34 37 0 39 1 39 33 0 37 -18 48 -23 15 -2 -15 -10 -23 -22 -23 -13 0 -17 5 -13 20 7 26 -25 63 -49 57 -13 -4 -18 1 -18 14 0 11 -7 19 -16 19 -11 0 -14 -8 -12 -26z"/>
 <path d="M6823 10319 c-19 -7 -23 -16 -23 -49 0 -46 21 -94 45 -104 28 -10 100 -7 113 6 28 28 4 83 -34 76 -13 -2 -20 6 -25 30 -4 18 -10 36 -13 39 -11 11 -39 12 -63 2z m47 -49 c0 -32 21 -50 60 -50 6 0 10 -7 10 -15 0 -21 -73 -20 -94 1 -9 9 -16 32 -16 55 0 32 3 39 20 39 16 0 20 -7 20 -30z"/>
 <path d="M3379 10198 c-25 -46 -13 -49 198 -46 150 2 198 6 198 15 0 9 -33 14 -115 18 -137 7 -183 11 -233 24 -32 8 -39 6 -48 -11z"/>
 <path d="M1520 10121 c-6 -12 -6 -22 -1 -26 6 -3 15 3 21 14 6 12 6 22 1 26 -6 3 -15 -3 -21 -14z"/>
 <path d="M8826 10111 c-4 -5 -2 -12 3 -16 6 -3 10 -155 11 -397 0 -215 3 -395 6 -399 20 -32 24 37 24 379 0 305 -3 381 -14 397 -7 11 -14 24 -14 28 -1 14 -10 19 -16 8z"/>
 <path d="M1502 10068 c-19 -19 -17 -761 2 -777 8 -7 12 -20 9 -31 -5 -19 28 -45 42 -32 4 4 3 -2 -3 -14 -6 -11 -18 -26 -26 -33 -9 -8 -13 -17 -11 -22 9 -14 35 2 49 30 13 24 12 29 -15 60 l-29 35 0 394 c0 217 -1 396 -3 398 -2 2 -9 -2 -15 -8z"/>
 <path d="M1124 9508 c-5 -8 3 -12 20 -9 5 1 17 -6 27 -15 14 -12 16 -21 8 -30 -7 -8 -7 -14 1 -19 5 -3 11 -4 11 -1 1 3 2 9 3 14 1 4 5 12 8 18 4 6 -2 20 -13 30 -21 19 -57 26 -65 12z"/>
 <path d="M1205 9421 c-7 -12 12 -24 25 -16 11 7 4 25 -10 25 -5 0 -11 -4 -15 -9z"/>
 <path d="M1176 9403 c-3 -3 -14 -7 -24 -8 -9 0 -18 -5 -18 -10 -1 -6 2 -9 8 -7 5 1 7 -2 4 -7 -14 -21 13 -19 33 3 13 13 18 26 13 30 -5 3 -12 3 -16 -1z"/>
 <path d="M1445 9260 c-34 -14 -80 -69 -68 -81 7 -7 16 -1 29 18 10 15 17 32 16 36 -1 5 2 6 7 3 14 -9 63 12 56 24 -7 12 -13 12 -40 0z"/>
 <path d="M1128 9222 c-23 -27 -29 -40 -20 -46 5 -3 18 8 30 24 23 31 14 51 -10 22z"/>
 <path d="M1321 9206 c-7 -8 -8 -17 -3 -20 6 -3 15 1 21 8 7 8 8 17 3 20 -6 3 -15 -1 -21 -8z"/>
 <path d="M7921 9206 c-7 -8 -8 -17 -3 -20 6 -3 15 1 21 8 7 8 8 17 3 20 -6 3 -15 -1 -21 -8z"/>
 <path d="M8001 9194 c-11 -15 -18 -31 -15 -36 9 -14 36 13 30 29 -3 8 -2 11 3 8 5 -3 12 -1 15 4 15 23 -14 19 -33 -5z"/>
 <path d="M8241 9202 c-13 -25 2 -38 19 -16 9 10 10 18 3 25 -8 8 -14 5 -22 -9z"/>
 <path d="M7764 9199 c-6 -10 6 -14 33 -14 13 0 24 5 25 10 3 11 -51 15 -58 4z"/>
 <path d="M8066 9191 c-10 -11 -13 -22 -8 -25 5 -3 17 3 26 13 10 11 13 22 8 25 -5 3 -17 -3 -26 -13z"/>
 <path d="M1202 9162 c-23 -29 -28 -42 -21 -55 6 -10 15 -15 20 -12 5 4 7 11 3 16 -3 5 6 25 20 44 36 47 15 54 -22 7z"/>
 <path d="M1449 9172 c-29 -24 -11 -36 20 -13 14 11 19 21 13 25 -5 3 -20 -2 -33 -12z"/>
 <path d="M8165 9181 c-8 -13 56 -44 68 -32 6 6 -2 15 -21 25 -36 19 -39 19 -47 7z"/>
 <path d="M1290 9164 c-9 -10 -10 -18 -3 -25 8 -8 14 -5 22 9 13 25 -2 38 -19 16z"/>
 <path d="M1351 9156 c-7 -8 -8 -17 -3 -20 6 -3 15 1 21 8 7 8 8 17 3 20 -6 3 -15 -1 -21 -8z"/>
 <path d="M1561 9157 c-6 -8 -8 -17 -5 -20 10 -9 45 13 39 24 -9 13 -21 11 -34 -4z"/>
 <path d="M2636 9152 c-3 -6 1 -15 8 -21 8 -7 17 -8 20 -3 3 6 -1 15 -8 21 -8 7 -17 8 -20 3z"/>
 <path d="M7701 9146 c-9 -10 -9 -16 -1 -21 17 -10 37 12 24 25 -8 8 -15 6 -23 -4z"/>
 <path d="M8255 9146 c-11 -8 -14 -16 -8 -19 6 -4 18 0 28 7 11 8 14 16 8 19 -6 4 -18 0 -28 -7z"/>
 <path d="M8391 9049 c-16 -6 -21 -13 -14 -20 13 -13 67 7 58 21 -7 12 -12 12 -44 -1z"/>
 <path d="M1435 9029 c-3 -3 2 -12 10 -19 12 -10 18 -10 30 0 9 7 13 15 10 18 -8 9 -45 10 -50 1z"/>
 <path d="M1534 9005 c-18 -24 -24 -39 -17 -46 6 -6 19 4 36 30 34 51 18 64 -19 16z"/>
 <path d="M1827 9034 c-3 -5 7 -25 22 -43 17 -21 31 -30 35 -23 4 6 -6 25 -22 43 -16 18 -31 28 -35 23z"/>
 <path d="M8151 9016 c-7 -8 -8 -17 -3 -20 6 -3 15 1 21 8 7 8 8 17 3 20 -6 3 -15 -1 -21 -8z"/>
 <path d="M1636 8999 c-15 -23 -12 -44 5 -34 5 4 13 15 19 25 15 28 -6 35 -24 9z"/>
 <path d="M2666 9012 c-3 -6 1 -15 8 -21 8 -7 17 -8 20 -3 3 6 -1 15 -8 21 -8 7 -17 8 -20 3z"/>
 <path d="M7671 9006 c-9 -10 -9 -16 -1 -21 17 -10 37 12 24 25 -8 8 -15 6 -23 -4z"/>
 <path d="M7935 9000 c-4 -6 -3 -16 3 -22 6 -6 12 -6 17 2 4 6 3 16 -3 22 -6 6 -12 6 -17 -2z"/>
 <path d="M8226 8991 c-12 -13 -14 -21 -6 -26 5 -3 8 -10 5 -15 -3 -5 3 -14 14 -20 12 -6 22 -6 26 -1 3 6 -4 15 -16 21 -19 11 -20 13 -4 30 9 10 12 21 7 24 -5 3 -17 -3 -26 -13z"/>
 <path d="M1244 8986 c-7 -17 13 -59 25 -52 10 7 2 54 -10 62 -5 3 -12 -1 -15 -10z"/>
 <path d="M8546 8992 c-3 -5 1 -17 8 -28 8 -10 12 -24 9 -30 -6 -15 14 -28 22 -14 3 5 3 16 -2 23 -4 6 -8 18 -10 26 -3 20 -20 35 -27 23z"/>
 <path d="M1396 8972 c-3 -6 1 -15 8 -21 8 -7 17 -8 20 -3 3 6 -1 15 -8 21 -8 7 -17 8 -20 3z"/>
 <path d="M8406 8961 c-3 -5 1 -14 8 -20 16 -13 32 2 21 19 -8 12 -22 13 -29 1z"/>
 <path d="M8079 8913 c-4 -30 -3 -41 8 -64 16 -34 40 -43 52 -20 12 22 3 35 -14 21 -8 -7 -15 -2 -24 16 -6 14 -9 29 -6 34 3 5 1 11 -5 15 -5 3 -11 3 -11 -2z"/>
 <path d="M8376 8901 c-3 -5 5 -16 19 -25 24 -16 45 -6 22 11 -24 19 -36 23 -41 14z"/>
 <path d="M8151 8886 c-7 -8 -8 -17 -3 -20 6 -3 15 1 21 8 7 8 8 17 3 20 -6 3 -15 -1 -21 -8z"/>
 <path d="M8236 8881 c-10 -11 -13 -22 -8 -25 5 -3 17 3 26 13 10 11 13 22 8 25 -5 3 -17 -3 -26 -13z"/>
 <path d="M2695 8870 c-10 -17 12 -37 25 -24 8 8 6 15 -4 23 -10 9 -16 9 -21 1z"/>
 <path d="M7641 8866 c-9 -10 -9 -16 -1 -21 17 -10 37 12 24 25 -8 8 -15 6 -23 -4z"/>
 <path d="M8355 8859 c-9 -14 34 -59 56 -59 21 0 34 16 20 24 -5 3 -20 7 -34 8 -14 1 -23 7 -20 14 6 16 -14 27 -22 13z"/>
 <path d="M8571 8841 c-23 -32 -13 -52 11 -23 24 27 29 40 19 46 -5 4 -19 -7 -30 -23z"/>
 <path d="M8285 8840 c-4 -6 -3 -16 3 -22 6 -6 12 -6 17 2 4 6 3 16 -3 22 -6 6 -12 6 -17 -2z"/>
 <path d="M8385 8751 c-7 -12 12 -24 25 -16 11 7 4 25 -10 25 -5 0 -11 -4 -15 -9z"/>
 <path d="M7611 8722 c-13 -25 2 -38 19 -16 9 10 10 18 3 25 -8 8 -14 5 -22 -9z"/>
 <path d="M2726 8722 c-3 -6 1 -15 8 -21 8 -7 17 -8 20 -3 3 6 -1 15 -8 21 -8 7 -17 8 -20 3z"/>
 <path d="M7581 8576 c-9 -10 -9 -16 -1 -21 17 -10 37 12 24 25 -8 8 -15 6 -23 -4z"/>
 <path d="M2785 8440 c-10 -17 12 -37 25 -24 8 8 6 15 -4 23 -10 9 -16 9 -21 1z"/>
 <path d="M7551 8436 c-9 -10 -9 -16 -1 -21 17 -10 37 12 24 25 -8 8 -15 6 -23 -4z"/>
 <path d="M2816 8292 c-3 -6 1 -15 8 -21 8 -7 17 -8 20 -3 3 6 -1 15 -8 21 -8 7 -17 8 -20 3z"/>
 <path d="M2719 8255 c-10 -9 5 -66 16 -66 16 0 17 34 3 54 -8 10 -16 15 -19 12z"/>
 <path d="M2646 8222 c-4 -6 -2 -21 4 -32 6 -11 8 -20 4 -20 -3 0 -1 -7 6 -15 7 -9 19 -14 25 -11 7 2 17 0 23 -6 6 -6 12 -6 16 1 4 6 5 12 2 12 -36 8 -55 21 -50 33 6 17 -21 52 -30 38z"/>
 <path d="M2829 8204 c-13 -16 -19 -63 -8 -70 4 -2 12 3 19 10 9 11 9 20 0 37 -7 12 -8 19 -2 15 6 -3 13 -2 16 3 11 17 -11 21 -25 5z"/>
 <path d="M7491 8146 c-9 -10 -9 -16 -1 -21 17 -10 37 12 24 25 -8 8 -15 6 -23 -4z"/>
 <path d="M2825 8091 c-7 -12 12 -24 25 -16 11 7 4 25 -10 25 -5 0 -11 -4 -15 -9z"/>
 <path d="M2842 8032 c-29 -9 -29 -27 1 -26 12 1 27 -6 33 -14 19 -26 36 -4 18 24 -9 13 -19 24 -23 23 -3 -1 -16 -4 -29 -7z"/>
 <path d="M7461 8002 c-13 -25 2 -38 19 -16 9 10 10 18 3 25 -8 8 -14 5 -22 -9z"/>
 <path d="M2676 7981 c-21 -23 -6 -36 20 -16 14 10 16 17 8 25 -7 7 -15 5 -28 -9z"/>
 <path d="M2641 7936 c-7 -8 -8 -17 -3 -20 6 -3 15 1 21 8 7 8 8 17 3 20 -6 3 -15 -1 -21 -8z"/>
 <path d="M2686 7933 c-3 -3 -6 -23 -6 -44 0 -29 6 -41 28 -55 15 -10 32 -17 39 -16 7 2 17 -7 23 -18 6 -11 16 -18 21 -14 6 3 17 -2 24 -12 14 -18 16 -17 19 6 0 5 10 15 20 23 19 14 18 15 -3 36 -22 22 -48 24 -43 2 1 -6 -4 -10 -10 -8 -7 1 -15 17 -18 35 -7 46 -24 45 -28 -1 -3 -38 -4 -38 -23 -21 -11 10 -19 30 -19 50 0 32 -11 50 -24 37z"/>
 <path d="M2895 7930 c-4 -6 -3 -16 3 -22 6 -6 12 -6 17 2 4 6 3 16 -3 22 -6 6 -12 6 -17 -2z"/>
 <path d="M2601 7886 c-7 -8 -8 -17 -3 -20 6 -3 15 1 21 8 7 8 8 17 3 20 -6 3 -15 -1 -21 -8z"/>
 <path d="M2957 7743 c-10 -10 -8 -51 3 -71 5 -9 14 -44 20 -77 12 -76 37 -200 40 -200 1 0 8 -31 15 -70 33 -169 44 -226 49 -234 3 -5 11 -40 17 -77 12 -77 14 -90 30 -154 6 -25 12 -69 13 -98 2 -52 17 -84 30 -64 3 6 2 13 -4 17 -5 3 -10 10 -10 16 0 10 4023 13 4033 2 4 -3 2 -12 -4 -19 -7 -8 -7 -14 1 -19 20 -13 28 6 25 60 -2 30 0 57 6 60 5 4 9 19 9 36 0 26 2 28 19 17 15 -9 23 -9 34 1 11 8 17 9 22 1 12 -19 37 11 31 35 -6 25 27 64 39 45 3 -5 11 -8 16 -5 22 14 5 -9 -47 -66 -57 -62 -61 -75 -30 -93 13 -9 20 -7 32 9 14 19 14 19 30 -4 13 -19 23 -22 49 -18 29 5 31 3 28 -18 -3 -15 5 -33 25 -56 29 -32 32 -33 62 -22 31 12 32 11 16 -6 -22 -25 -20 -36 11 -56 14 -10 37 -29 50 -43 17 -19 26 -23 35 -14 13 13 17 201 5 209 -5 3 -22 -7 -38 -23 -16 -15 -29 -23 -29 -17 0 6 7 13 15 17 35 13 12 77 -35 96 -28 12 -34 11 -63 -10 l-32 -23 30 32 29 31 -21 21 -20 21 -37 -43 c-27 -32 -39 -40 -47 -32 -9 9 -3 22 20 50 17 20 31 43 31 50 0 15 -35 35 -45 25 -5 -4 -5 -2 -2 4 8 13 -19 39 -49 48 -14 4 -28 -2 -49 -24 -37 -38 -53 -39 -26 -1 24 34 26 52 8 89 -12 23 -12 38 0 97 7 39 18 99 24 135 6 36 14 74 19 85 5 11 14 47 19 80 5 33 17 94 27 135 9 41 17 89 18 105 l1 30 -2221 3 c-1221 1 -2224 -1 -2227 -5z"/>
 <path d="M3176 6582 c-3 -6 1 -15 8 -21 8 -7 17 -8 20 -3 3 6 -1 15 -8 21 -8 7 -17 8 -20 3z"/>
 <path d="M7160 6575 c-9 -11 -10 -19 -3 -26 7 -7 14 -5 23 6 9 11 10 19 3 26 -7 7 -14 5 -23 -6z"/>
 <path d="M7131 6426 c-7 -8 -8 -17 -3 -20 6 -3 15 1 21 8 7 8 8 17 3 20 -6 3 -15 -1 -21 -8z"/>
 <path d="M3236 6292 c-3 -6 1 -15 8 -21 8 -7 17 -8 20 -3 3 6 -1 15 -8 21 -8 7 -17 8 -20 3z"/>
 <path d="M7101 6286 c-9 -10 -9 -16 -1 -21 17 -10 37 12 24 25 -8 8 -15 6 -23 -4z"/>
 <path d="M7071 6146 c-9 -10 -9 -16 -1 -21 17 -10 37 12 24 25 -8 8 -15 6 -23 -4z"/>
 <path d="M3265 6141 c-7 -12 12 -24 25 -16 11 7 4 25 -10 25 -5 0 -11 -4 -15 -9z"/>
 <path d="M3295 6010 c-10 -17 12 -37 25 -24 8 8 6 15 -4 23 -10 9 -16 9 -21 1z"/>
 <path d="M7041 5996 c-7 -8 -8 -17 -3 -20 6 -3 15 1 21 8 7 8 8 17 3 20 -6 3 -15 -1 -21 -8z"/>
 <path d="M3325 5870 c-4 -6 -3 -16 3 -22 6 -6 12 -6 17 2 4 6 3 16 -3 22 -6 6 -12 6 -17 -2z"/>
 <path d="M7011 5856 c-7 -8 -8 -17 -3 -20 6 -3 15 1 21 8 7 8 8 17 3 20 -6 3 -15 -1 -21 -8z"/>
 <path d="M3354 5727 c-8 -22 11 -46 26 -31 7 7 5 17 -4 30 -14 18 -15 18 -22 1z"/>
 <path d="M6981 5716 c-9 -10 -9 -16 -1 -21 17 -10 37 12 24 25 -8 8 -15 6 -23 -4z"/>
 <path d="M3387 5584 c-3 -4 -2 -16 4 -26 8 -15 14 -17 22 -9 8 8 7 15 -4 26 -8 9 -18 13 -22 9z"/>
 <path d="M6951 5572 c-13 -25 2 -38 19 -16 9 10 10 18 3 25 -8 8 -14 5 -22 -9z"/>
 <path d="M6921 5426 c-7 -8 -8 -17 -3 -20 6 -3 15 1 21 8 7 8 8 17 3 20 -6 3 -15 -1 -21 -8z"/>
 <path d="M6891 5286 c-7 -8 -8 -17 -3 -20 6 -3 15 1 21 8 7 8 8 17 3 20 -6 3 -15 -1 -21 -8z"/>
 <path d="M3471 5246 c-8 -9 -8 -16 -2 -20 5 -4 13 -28 16 -54 3 -26 10 -54 14 -62 5 -9 12 -45 16 -80 4 -35 11 -71 16 -80 8 -14 12 -37 44 -213 8 -42 16 -81 19 -85 3 -5 10 -33 15 -63 6 -30 14 -73 19 -96 6 -30 6 -41 -2 -40 -7 1 -10 -15 -8 -45 3 -43 2 -48 -16 -48 -16 0 -21 8 -24 33 -3 37 -22 39 -26 3 -4 -35 13 -63 42 -68 32 -6 56 8 57 35 1 12 7 -7 13 -43 l11 -65 1504 0 1504 0 29 135 c16 74 34 164 39 200 5 36 14 74 19 85 5 11 12 43 15 70 4 28 10 55 15 60 4 6 11 39 14 75 4 35 11 69 14 75 4 5 12 39 19 75 6 36 17 92 24 125 6 33 12 69 13 80 1 20 -6 20 -1700 23 -1456 2 -1703 0 -1713 -12z"/>
 <path d="M6837 4522 c-20 -22 -22 -46 -4 -61 19 -16 26 -4 17 28 l-8 27 46 -6 c52 -8 72 -29 72 -77 0 -26 -4 -33 -19 -33 -15 0 -21 8 -23 33 -4 42 -22 41 -26 -1 -5 -45 13 -64 57 -60 31 3 36 7 39 32 2 16 1 44 -3 63 -11 61 -110 97 -148 55z"/>
 <path d="M3496 4491 c-21 -23 -20 -44 2 -63 19 -16 42 -18 42 -3 0 6 -8 10 -18 9 -12 -1 -17 7 -17 27 0 16 4 24 10 20 14 -10 45 -8 45 4 0 6 -6 10 -13 10 -6 0 -17 4 -23 8 -6 3 -19 -2 -28 -12z"/>
 <path d="M6747 4404 c-4 -4 -7 -26 -7 -50 0 -63 37 -104 94 -104 54 0 84 27 66 59 -14 28 -32 17 -21 -12 8 -21 6 -22 -38 -19 -53 4 -71 21 -71 69 0 23 5 33 15 33 8 0 15 -8 15 -18 0 -26 25 -56 39 -48 8 5 9 12 2 19 -5 7 -11 26 -13 42 -3 26 -7 30 -38 33 -20 2 -39 0 -43 -4z"/>
 <path d="M3407 4384 c-12 -12 -8 -84 7 -113 27 -51 124 -71 147 -30 8 15 8 24 0 32 -7 7 -12 5 -17 -6 -9 -24 -69 -22 -94 3 -24 24 -28 90 -5 90 9 0 15 -9 15 -23 0 -27 33 -62 50 -52 13 8 2 28 -14 22 -7 -3 -11 10 -11 37 0 40 -1 41 -35 44 -20 2 -39 0 -43 -4z"/>
 <path d="M8458 4313 c-21 -23 -52 -153 -39 -166 5 -5 22 3 42 21 31 28 34 35 33 86 0 65 -13 85 -36 59z"/>
 <path d="M3685 4150 c-10 -17 12 -37 25 -24 8 8 6 15 -4 23 -10 9 -16 9 -21 1z"/>
 <path d="M6651 4142 c-13 -25 2 -38 19 -16 9 10 10 18 3 25 -8 8 -14 5 -22 -9z"/>
 <path d="M3715 4011 c-4 -8 -1 -19 8 -28 19 -20 30 -1 13 22 -10 14 -15 15 -21 6z"/>
 <path d="M6621 3996 c-7 -8 -8 -17 -3 -20 6 -3 15 1 21 8 7 8 8 17 3 20 -6 3 -15 -1 -21 -8z"/>
 <path d="M3735 3930 c-4 -6 -3 -16 3 -22 6 -6 12 -6 17 2 4 6 3 16 -3 22 -6 6 -12 6 -17 -2z"/>
 <path d="M3746 3862 c-3 -6 1 -15 8 -21 8 -7 17 -8 20 -3 3 6 -1 15 -8 21 -8 7 -17 8 -20 3z"/>
 <path d="M6591 3856 c-9 -10 -9 -16 -1 -21 17 -10 37 12 24 25 -8 8 -15 6 -23 -4z"/>
 <path d="M3777 3723 c-4 -6 0 -18 7 -28 8 -11 16 -14 19 -8 4 6 0 18 -7 28 -8 11 -16 14 -19 8z"/>
 <path d="M6561 3712 c-13 -25 2 -38 19 -16 9 10 10 18 3 25 -8 8 -14 5 -22 -9z"/>
 <path d="M3805 3581 c-4 -8 -1 -19 8 -28 19 -20 30 -1 13 22 -10 14 -15 15 -21 6z"/>
 <path d="M6531 3566 c-7 -8 -8 -17 -3 -20 6 -3 15 1 21 8 7 8 8 17 3 20 -6 3 -15 -1 -21 -8z"/>
 <path d="M3836 3432 c-3 -6 1 -15 8 -21 8 -7 17 -8 20 -3 3 6 -1 15 -8 21 -8 7 -17 8 -20 3z"/>
 <path d="M6501 3426 c-7 -8 -8 -17 -3 -20 6 -3 15 1 21 8 7 8 8 17 3 20 -6 3 -15 -1 -21 -8z"/>
 <path d="M3865 3290 c-10 -17 12 -37 25 -24 8 8 6 15 -4 23 -10 9 -16 9 -21 1z"/>
 <path d="M6475 3290 c-4 -6 -3 -16 3 -22 6 -6 12 -6 17 2 4 6 3 16 -3 22 -6 6 -12 6 -17 -2z"/>
 <path d="M6455 3210 c-4 -6 -3 -16 3 -22 6 -6 12 -6 17 2 4 6 3 16 -3 22 -6 6 -12 6 -17 -2z"/>
 <path d="M3926 3002 c-3 -6 1 -15 8 -21 8 -7 17 -8 20 -3 3 6 -1 15 -8 21 -8 7 -17 8 -20 3z"/>
 <path d="M6411 2996 c-9 -10 -9 -16 -1 -21 17 -10 37 12 24 25 -8 8 -15 6 -23 -4z"/>
 <path d="M3955 2860 c-10 -17 12 -37 25 -24 8 8 6 15 -4 23 -10 9 -16 9 -21 1z"/>
 <path d="M6381 2856 c-7 -8 -8 -17 -3 -20 6 -3 15 1 21 8 7 8 8 17 3 20 -6 3 -15 -1 -21 -8z"/>
 <path d="M3976 2782 c-3 -5 1 -18 9 -28 8 -10 15 -31 15 -45 0 -14 3 -29 8 -33 4 -4 12 -38 18 -74 7 -37 19 -98 27 -137 8 -38 21 -97 27 -130 6 -33 16 -74 21 -92 5 -17 12 -56 16 -85 3 -29 9 -57 13 -63 5 -5 11 -37 15 -70 4 -33 10 -64 14 -70 3 -5 7 -19 8 -30 5 -48 22 -125 33 -144 l11 -21 976 2 c968 3 976 3 979 23 6 49 26 152 34 170 4 11 13 49 20 85 6 36 18 94 25 130 8 36 21 99 30 140 9 41 22 107 31 145 8 39 19 97 25 130 5 33 14 69 19 80 5 11 11 38 12 60 l3 40 -1179 3 c-801 1 -1183 5 -1192 13 -7 6 -15 6 -18 1z"/>
 <path d="M4195 1720 c-10 -17 12 -37 25 -24 8 8 6 15 -4 23 -10 9 -16 9 -21 1z"/>
 <path d="M6141 1706 c-7 -8 -8 -17 -3 -20 6 -3 15 1 21 8 7 8 8 17 3 20 -6 3 -15 -1 -21 -8z"/>
 <path d="M4226 1572 c-3 -6 1 -15 8 -21 8 -7 17 -8 20 -3 3 6 -1 15 -8 21 -8 7 -17 8 -20 3z"/>
 <path d="M6111 1566 c-7 -8 -8 -17 -3 -20 6 -3 15 1 21 8 7 8 8 17 3 20 -6 3 -15 -1 -21 -8z"/>
 <path d="M4255 1430 c-10 -17 12 -37 25 -24 8 8 6 15 -4 23 -10 9 -16 9 -21 1z"/>
 <path d="M6085 1430 c-4 -6 -3 -16 3 -22 6 -6 12 -6 17 2 4 6 3 16 -3 22 -6 6 -12 6 -17 -2z"/>
 <path d="M4285 1290 c-4 -6 -3 -16 3 -22 6 -6 12 -6 17 2 4 6 3 16 -3 22 -6 6 -12 6 -17 -2z"/>
 <path d="M6051 1276 c-7 -8 -8 -17 -3 -20 6 -3 15 1 21 8 7 8 8 17 3 20 -6 3 -15 -1 -21 -8z"/>
 <path d="M4315 1150 c-4 -6 -3 -16 3 -22 6 -6 12 -6 17 2 4 6 3 16 -3 22 -6 6 -12 6 -17 -2z"/>
 <path d="M6021 1136 c-9 -10 -9 -16 -1 -21 17 -10 37 12 24 25 -8 8 -15 6 -23 -4z"/>
 <path d="M4346 1002 c-3 -6 1 -15 8 -21 8 -7 17 -8 20 -3 3 6 -1 15 -8 21 -8 7 -17 8 -20 3z"/>
 <path d="M5991 996 c-9 -10 -9 -16 -1 -21 17 -10 37 12 24 25 -8 8 -15 6 -23 -4z"/>
 <path d="M4126 941 c-4 -5 -2 -13 4 -16 8 -5 8 -11 0 -20 -6 -7 -8 -19 -4 -28 3 -8 1 -18 -5 -21 -6 -4 -7 -14 -4 -24 10 -27 35 -52 45 -46 6 4 7 -2 4 -14 -6 -17 4 -30 55 -69 34 -26 69 -48 78 -49 27 -1 53 17 47 32 -3 8 1 14 8 14 19 0 46 33 46 58 0 27 -42 59 -77 58 -21 -1 -28 -6 -28 -21 0 -16 -33 -45 -51 -45 -12 0 0 32 25 66 27 36 28 40 14 57 -16 17 -18 16 -47 -10 -17 -16 -26 -21 -20 -13 18 26 13 57 -12 81 -13 12 -25 19 -25 16 -1 -4 -2 -13 -3 -19 -1 -16 -31 -17 -31 -1 0 17 -12 26 -19 14z"/>
 <path d="M4375 860 c-10 -17 12 -37 25 -24 8 8 6 15 -4 23 -10 9 -16 9 -21 1z"/>
 <path d="M5961 852 c-13 -25 2 -38 19 -16 9 10 10 18 3 25 -8 8 -14 5 -22 -9z"/>
 <path d="M4406 712 c-3 -6 1 -15 8 -21 8 -7 17 -8 20 -3 3 6 -1 15 -8 21 -8 7 -17 8 -20 3z"/>
 <path d="M5931 706 c-9 -10 -9 -16 -1 -21 17 -10 37 12 24 25 -8 8 -15 6 -23 -4z"/>
 <path d="M4436 572 c-3 -6 1 -15 8 -21 8 -7 17 -8 20 -3 3 6 -1 15 -8 21 -8 7 -17 8 -20 3z"/>
 <path d="M5901 566 c-9 -10 -9 -16 -1 -21 17 -10 37 12 24 25 -8 8 -15 6 -23 -4z"/>
 <path d="M4465 421 c-7 -12 12 -24 25 -16 11 7 4 25 -10 25 -5 0 -11 -4 -15 -9z"/>
 <path d="M5875 420 c-4 -6 -3 -16 3 -22 6 -6 12 -6 17 2 4 6 3 16 -3 22 -6 6 -12 6 -17 -2z"/>
 <path d="M4496 362 c-3 -6 1 -15 8 -21 8 -7 17 -8 20 -3 3 6 -1 15 -8 21 -8 7 -17 8 -20 3z"/>
 <path d="M5841 356 c-9 -10 -9 -16 -1 -21 17 -10 37 12 24 25 -8 8 -15 6 -23 -4z"/>
 <path d="M4525 321 c-6 -11 29 -33 39 -24 7 7 -12 33 -25 33 -4 0 -10 -4 -14 -9z"/>
 <path d="M5805 316 c-11 -8 -14 -16 -8 -19 6 -4 18 0 28 7 11 8 14 16 8 19 -6 4 -18 0 -28 -7z"/>
 <path d="M5273 52 c-30 -3 -62 -27 -51 -38 3 -2 25 0 49 5 34 8 49 7 66 -4 32 -21 46 -19 34 4 -13 23 -55 37 -98 33z"/>
 </g>
<g id="layer105" fill="#f37101" stroke="none">
 <path d="M8770 10140 c-9 -6 -359 -10 -839 -10 -453 0 -827 -3 -832 -6 -5 -3 -7 -10 -4 -15 4 -5 326 -9 813 -9 478 0 813 -4 822 -10 9 -5 19 -5 27 1 7 6 17 8 22 5 6 -4 15 2 20 13 13 24 -7 45 -29 31z"/>
 <path d="M1539 10112 c-22 -22 -25 -32 -18 -51 5 -13 10 -181 12 -375 1 -228 6 -350 12 -349 6 2 11 123 13 330 l3 327 25 23 c14 13 22 28 19 34 -5 7 -13 5 -25 -6 -11 -10 -20 -12 -24 -6 -4 5 9 21 27 36 l34 25 854 3 c561 1 854 5 854 12 0 7 -297 11 -866 12 -476 1 -872 5 -880 7 -8 3 -26 -7 -40 -22z"/>
 <path d="M3945 10120 c-3 -6 0 -12 7 -15 26 -10 2758 0 2761 10 3 14 -2759 19 -2768 5z"/>
 <path d="M6775 10119 c-11 -16 31 -26 82 -20 29 4 57 3 62 -2 5 -5 24 -6 43 -1 18 4 49 8 68 8 19 1 35 6 35 11 0 13 -80 16 -122 5 -19 -5 -35 -5 -38 1 -7 11 -123 10 -130 -2z"/>
 <path d="M8805 10096 c-16 -12 -17 -16 -6 -29 9 -12 10 -21 2 -36 -7 -12 -7 -22 -1 -26 5 -3 16 8 25 25 8 16 13 30 9 30 -4 0 -1 6 5 14 18 22 -10 40 -34 22z"/>
 <path d="M8795 9371 c-7 -12 12 -24 25 -16 11 7 4 25 -10 25 -5 0 -11 -4 -15 -9z"/>
 <path d="M8805 9321 c-3 -6 -3 -11 2 -11 14 -1 -31 -24 -50 -25 -10 -1 -20 2 -23 7 -9 14 -24 -1 -17 -17 4 -13 -22 -15 -188 -15 -169 0 -195 2 -212 17 -18 17 -19 17 -32 0 -6 -9 -20 -17 -29 -17 -9 0 -22 -11 -28 -25 -6 -14 -16 -25 -21 -25 -5 0 -4 6 2 14 19 22 -3 29 -69 22 -32 -4 -61 -3 -64 2 -3 5 -31 7 -62 6 -36 -2 -69 3 -86 12 -25 13 -29 13 -34 -1 -3 -8 -10 -13 -14 -10 -5 3 -11 1 -14 -4 -9 -14 -225 -14 -242 0 -11 9 -18 9 -26 1 -13 -13 -150 -17 -145 -4 1 4 -2 7 -8 7 -5 0 -9 -3 -8 -7 2 -5 -619 -8 -1380 -8 -1062 0 -1386 3 -1395 12 -9 9 -15 9 -24 0 -15 -15 -1913 -18 -1923 -2 -3 5 -12 7 -19 4 -7 -3 -19 2 -26 10 -14 18 -34 11 -23 -7 4 -7 -5 -4 -19 5 -17 11 -29 14 -33 8 -3 -6 -46 -10 -96 -10 -54 0 -97 -5 -109 -12 -17 -11 -22 -10 -29 0 -7 11 -74 14 -349 12 -224 0 -342 3 -347 9 -4 7 -15 5 -31 -5 -22 -15 -28 -13 -25 8 2 14 -37 29 -44 18 -5 -8 -11 -7 -21 1 -11 9 -18 9 -26 1 -15 -15 18 -53 38 -45 9 3 14 0 12 -8 -2 -7 2 -13 9 -14 6 0 15 -3 19 -7 4 -5 240 -8 525 -8 l518 0 6 -37 c3 -21 10 -54 16 -73 5 -19 14 -60 20 -90 12 -63 32 -164 54 -267 37 -172 47 -222 59 -283 7 -36 15 -72 19 -80 3 -8 10 -42 16 -75 5 -33 14 -79 20 -101 6 -23 9 -61 6 -84 -4 -47 10 -95 25 -85 6 4 10 -10 10 -34 0 -22 4 -42 9 -45 5 -3 12 -33 16 -66 4 -33 14 -81 23 -106 l17 -45 2225 -1 c1870 0 2226 2 2231 13 13 28 28 86 34 139 4 30 10 60 14 65 3 6 11 39 18 75 11 60 18 97 58 285 9 39 22 102 30 140 14 69 31 154 60 290 9 39 22 102 30 140 7 39 21 102 29 140 8 39 18 84 21 100 17 83 9 76 80 72 36 -2 68 0 72 4 14 12 160 21 167 10 4 -5 12 -8 19 -6 38 11 107 14 104 3 -2 -13 81 -19 89 -6 3 4 124 8 269 8 257 0 265 1 275 21 7 11 18 18 25 15 7 -2 21 4 31 16 17 18 17 21 3 31 -9 7 -16 16 -17 20 -1 15 -10 19 -17 8z"/>
 <path d="M5675 9280 c-4 -6 -10 -8 -15 -5 -5 3 -11 1 -14 -4 -4 -5 -2 -12 3 -15 5 -4 12 -2 16 4 4 6 10 8 15 5 5 -3 11 -1 14 4 4 5 2 12 -3 15 -5 4 -12 2 -16 -4z"/>
 <path d="M3164 6735 c-4 -8 -3 -28 0 -43 7 -28 23 -104 51 -237 9 -44 23 -109 31 -145 20 -92 43 -203 59 -285 8 -38 22 -104 31 -145 8 -41 20 -102 26 -135 6 -33 14 -69 19 -80 5 -11 13 -47 19 -80 5 -33 16 -91 25 -130 8 -38 20 -98 27 -132 7 -34 18 -67 24 -73 7 -7 532 -9 1714 -8 l1704 3 12 65 c12 61 19 94 59 283 8 39 22 104 30 142 7 39 21 104 30 145 8 41 20 102 26 135 5 33 13 67 16 75 4 8 12 44 19 80 12 61 22 111 59 283 36 170 47 224 48 257 l2 35 -2013 3 c-1793 2 -2013 0 -2018 -13z"/>
 <path d="M3694 4250 c-12 -12 -3 -67 63 -375 8 -38 20 -99 27 -135 7 -36 15 -72 19 -80 3 -8 10 -42 16 -75 6 -33 17 -94 26 -135 9 -41 23 -106 30 -145 8 -38 21 -101 30 -140 28 -131 44 -210 59 -285 8 -41 19 -88 25 -103 l11 -28 562 5 c695 7 553 7 1226 0 l572 -5 11 28 c7 15 17 60 25 98 7 39 20 104 29 145 8 41 20 102 26 135 5 33 14 69 18 80 5 11 14 49 21 85 13 69 31 161 56 275 8 39 19 97 25 130 5 33 13 67 16 75 4 8 12 44 19 80 7 36 20 99 28 140 34 159 43 219 32 230 -14 14 -2958 14 -2972 0z"/>
 <path d="M4214 1760 c-11 -11 -9 -28 21 -170 9 -41 23 -106 31 -145 9 -38 22 -101 29 -140 8 -38 22 -103 30 -142 29 -136 46 -218 60 -288 14 -67 29 -140 62 -290 8 -38 19 -99 26 -133 9 -53 18 -72 53 -111 37 -41 51 -50 100 -60 73 -14 1028 -15 1104 -1 55 10 105 44 130 89 14 25 25 68 55 216 7 39 20 102 29 140 38 179 47 225 61 290 7 39 20 102 29 140 38 179 47 225 61 290 7 39 21 104 30 145 30 143 32 159 21 170 -14 14 -1918 14 -1932 0z"/>
 </g>

</svg>